<svg width="24" height="24" viewBox="0 0 24 24" fill="none" xmlns="http://www.w3.org/2000/svg">
<path d="M4.72727 2H2V4.72727H4.72727V2Z" stroke="#405F2D" stroke-width="0.75" stroke-miterlimit="10"/>
<path d="M22 2H19.2727V4.72727H22V2Z" stroke="#405F2D" stroke-width="0.75" stroke-miterlimit="10"/>
<path d="M22 2H19.2727V4.72727H22V2Z" stroke="#405F2D" stroke-width="0.75" stroke-miterlimit="10"/>
<path d="M4.72727 19.2727H2V22H4.72727V19.2727Z" stroke="#405F2D" stroke-width="0.75" stroke-miterlimit="10"/>
<path d="M22 19.2727H19.2727V22H22V19.2727Z" stroke="#405F2D" stroke-width="0.75" stroke-miterlimit="10"/>
<path d="M22 19.2727H19.2727V22H22V19.2727Z" stroke="#405F2D" stroke-width="0.75" stroke-miterlimit="10"/>
<path fill-rule="evenodd" clip-rule="evenodd" d="M19.2728 2.98877H4.72732V3.73877H19.2728V2.98877ZM20.2615 4.72732H21.0115V19.2728H20.2615V4.72732ZM4.72732 20.2615H19.2728V21.0115H4.72732V20.2615ZM3.73877 19.2728V4.72732H2.98877V19.2728H3.73877Z" fill="#405F2D"/>
<path d="M10.1456 14.1726L11.0093 8.48169H12.7638V16.4999H11.5729V10.7453L10.7093 16.4999H9.50926L8.5729 10.8271V16.4999H7.4729V8.48169H9.22745L10.1456 14.1726Z" fill="#405F2D"/>
<path d="M15.3638 8.18169C15.1002 8.18169 14.9638 8.33624 14.9638 8.65442V9.1726H14.2456V8.70897C14.2456 7.89987 14.6274 7.49078 15.382 7.49078C16.1365 7.49078 16.5183 7.89987 16.5183 8.70897C16.5183 9.06351 16.4365 9.40897 16.2638 9.72715C16.1911 9.85442 16.1092 9.99078 16.0002 10.1271C15.9274 10.2271 15.8274 10.3453 15.7092 10.4817L15.4274 10.7999C15.3274 10.9181 15.2456 11.0181 15.1911 11.0999C15.0456 11.3181 14.982 11.5181 15.0183 11.6999H16.4638V12.3908H14.2638V11.7908C14.2638 11.4726 14.3456 11.1817 14.5002 10.909C14.5638 10.7999 14.6456 10.6817 14.7365 10.5635C14.8002 10.4908 14.8911 10.3908 15.0092 10.2453L15.1547 10.0908C15.2092 10.0362 15.2547 9.98169 15.2911 9.93624C15.3911 9.81806 15.4729 9.69987 15.5365 9.59078C15.6911 9.31806 15.7729 9.03624 15.7729 8.72715C15.7547 8.3726 15.6274 8.18169 15.3638 8.18169Z" fill="#405F2D"/>
</svg>
