<svg width="24" height="24" viewBox="0 0 24 24" fill="none" xmlns="http://www.w3.org/2000/svg">
<g clip-path="url(#clip0_5053_2387)">
<path d="M6.36239 17.282H2.25983C2.11624 17.282 2 17.1658 2 17.029V12.9265C2 12.7829 2.11624 12.6667 2.25983 12.6667H16.6188C16.7624 12.6667 16.8786 12.7829 16.8786 12.9265C16.8786 13.0701 16.7624 13.1863 16.6188 13.1863H2.51282V16.7761H6.36239C6.50598 16.7761 6.62222 16.8923 6.62222 17.0359C6.62222 17.1795 6.49915 17.282 6.36239 17.282Z" fill="#405F2D" stroke="#405F2D" stroke-width="0.25"/>
<path d="M21.747 17.282H8.41364C8.27005 17.282 8.15381 17.1658 8.15381 17.0291C8.15381 16.8923 8.27005 16.7692 8.41364 16.7692H21.4871V13.1795H18.6632C18.5196 13.1795 18.4034 13.0632 18.4034 12.9196C18.4034 12.7761 18.5196 12.6598 18.6632 12.6598H21.7401C21.8837 12.6598 22 12.7761 22 12.9196V17.0222C22 17.1658 21.8837 17.282 21.747 17.282Z" fill="#405F2D" stroke="#405F2D" stroke-width="0.25"/>
<path d="M2.25983 14.6632C2.11624 14.6632 2 14.5538 2 14.4103V11.8051C2 10.8957 2.73846 10.1504 3.6547 10.1504H20.3521C21.2615 10.1504 22.0068 10.8889 22.0068 11.8051V14.0889C22.0068 14.2325 21.8906 14.3487 21.747 14.3487C21.6034 14.3487 21.4872 14.2325 21.4872 14.0889V11.8051C21.4872 11.1761 20.9744 10.6632 20.3453 10.6632H3.6547C3.02564 10.6632 2.51282 11.1761 2.51282 11.8051V14.4103C2.51282 14.5538 2.39658 14.6632 2.25983 14.6632Z" fill="#405F2D" stroke="#405F2D" stroke-width="0.25"/>
<path d="M10.4649 10.6154H5.33673C5.19314 10.6154 5.0769 10.4991 5.0769 10.3555V9.13845C5.0769 8.53674 5.56237 8.05127 6.16408 8.05127H9.63075C10.2325 8.05127 10.7179 8.53674 10.7179 9.13845V10.3555C10.7179 10.4991 10.6017 10.6154 10.4649 10.6154ZM5.58972 10.1026H10.2051V9.13845C10.2051 8.82392 9.94528 8.56409 9.63075 8.56409H6.16408C5.84955 8.56409 5.58972 8.82392 5.58972 9.13845V10.1026Z" fill="#405F2D" stroke="#405F2D" stroke-width="0.25"/>
<path d="M18.67 10.6154H13.5418C13.3982 10.6154 13.282 10.4991 13.282 10.3555V9.13845C13.282 8.53674 13.7675 8.05127 14.3692 8.05127H17.8358C18.4375 8.05127 18.923 8.53674 18.923 9.13845V10.3555C18.923 10.4991 18.8068 10.6154 18.67 10.6154ZM13.7948 10.1026H18.4102V9.13845C18.4102 8.82392 18.1504 8.56409 17.8358 8.56409H14.3692C14.0546 8.56409 13.7948 8.82392 13.7948 9.13845V10.1026Z" fill="#405F2D" stroke="#405F2D" stroke-width="0.25"/>
<path d="M3.7984 10.6632C3.65481 10.6632 3.53857 10.547 3.53857 10.4034V7.4906C3.53857 6.67009 4.20866 6 5.02917 6H6.86849C7.01208 6 7.12832 6.11624 7.12832 6.25983C7.12832 6.40342 7.01208 6.51282 6.87533 6.51282H5.02917C4.489 6.51282 4.05139 6.95043 4.05139 7.4906V10.4034C4.05139 10.547 3.93516 10.6632 3.7984 10.6632Z" fill="#405F2D" stroke="#405F2D" stroke-width="0.25"/>
<path d="M20.2086 10.6632C20.065 10.6632 19.9488 10.547 19.9488 10.4034V7.4906C19.9488 6.95043 19.5112 6.51282 18.971 6.51282H8.92658C8.78299 6.51282 8.66675 6.39658 8.66675 6.25299C8.66675 6.1094 8.78299 6 8.92658 6H18.971C19.7915 6 20.4616 6.67009 20.4616 7.4906V10.4034C20.4616 10.547 20.3454 10.6632 20.2086 10.6632Z" fill="#405F2D" stroke="#405F2D" stroke-width="0.25"/>
</g>
<defs>
<clipPath id="clip0_5053_2387">
<rect width="20" height="11.2821" fill="white" transform="translate(2 6)"/>
</clipPath>
</defs>
</svg>
