<svg xmlns="http://www.w3.org/2000/svg" width="20" height="20" viewBox="0 0 20 20" fill="none">
  <path d="M14.1665 2.78332C15.4234 3.50904 16.469 4.55043 17.1997 5.80441C17.9304 7.05839 18.321 8.48147 18.3327 9.93277C18.3444 11.3841 17.9769 12.8133 17.2665 14.0789C16.5561 15.3445 15.5275 16.4027 14.2825 17.1486C13.0375 17.8945 11.6193 18.3023 10.1683 18.3317C8.7172 18.3611 7.28363 18.011 6.00947 17.316C4.7353 16.6211 3.66473 15.6054 2.90373 14.3696C2.14272 13.1337 1.71768 11.7206 1.67067 10.27L1.6665 9.99999L1.67067 9.72999C1.71734 8.29082 2.13613 6.88829 2.8862 5.65915C3.63628 4.43001 4.69205 3.4162 5.95058 2.71656C7.20911 2.01692 8.62746 1.65532 10.0673 1.66702C11.5072 1.67872 12.9195 2.06332 14.1665 2.78332ZM9.99984 4.99999C9.79573 5.00002 9.59872 5.07496 9.44619 5.21059C9.29366 5.34622 9.19622 5.53312 9.17234 5.73583L9.1665 5.83333V9.99999L9.174 10.1092C9.193 10.2537 9.24961 10.3908 9.33817 10.5067L9.41067 10.59L11.9107 13.09L11.989 13.1583C12.1351 13.2717 12.3149 13.3333 12.4998 13.3333C12.6848 13.3333 12.8645 13.2717 13.0107 13.1583L13.089 13.0892L13.1582 13.0108C13.2716 12.8647 13.3331 12.685 13.3331 12.5C13.3331 12.315 13.2716 12.1353 13.1582 11.9892L13.089 11.9108L10.8332 9.65416V5.83333L10.8273 5.73583C10.8035 5.53312 10.706 5.34622 10.5535 5.21059C10.401 5.07496 10.2039 5.00002 9.99984 4.99999Z" fill="#454545"/>
</svg>