<svg width="20" height="20" viewBox="0 0 20 20" fill="none" xmlns="http://www.w3.org/2000/svg">
<path d="M3.33325 5.94356C3.33325 5.65135 3.57526 5.41446 3.87379 5.41446H7.42057C7.42538 4.79133 7.49291 3.93707 8.1113 3.34569C8.59797 2.88028 9.26516 2.59259 9.99991 2.59259C10.7347 2.59259 11.4019 2.88028 11.8885 3.34569C12.5069 3.93706 12.5744 4.79133 12.5793 5.41446H16.126C16.4246 5.41446 16.6666 5.65135 16.6666 5.94356C16.6666 6.23577 16.4246 6.47266 16.126 6.47266H3.87379C3.57526 6.47266 3.33325 6.23577 3.33325 5.94356Z" fill="#D9363E"/>
<path d="M9.70848 17.4074H10.2914C12.2969 17.4074 13.2997 17.4074 13.9517 16.768C14.6037 16.1286 14.6704 15.0797 14.8038 12.982L14.996 9.95941C15.0684 8.82122 15.1046 8.25212 14.7775 7.89149C14.4505 7.53086 13.8981 7.53086 12.7934 7.53086H7.20647C6.10177 7.53086 5.54942 7.53086 5.22234 7.89149C4.89525 8.25212 4.93145 8.82122 5.00383 9.95941L5.19606 12.982C5.32947 15.0797 5.39617 16.1286 6.04816 16.768C6.70015 17.4074 7.70293 17.4074 9.70848 17.4074Z" fill="#D9363E"/>
</svg>
