<svg width="20" height="20" viewBox="0 0 20 20" fill="none" xmlns="http://www.w3.org/2000/svg">
<path d="M8.8107 14.8501C9.02282 14.6846 9.21523 14.4922 9.59999 14.1075L14.5306 9.17689C13.8595 8.89759 13.0647 8.43881 12.313 7.68713C11.5612 6.93533 11.1024 6.1404 10.8231 5.46928L5.89247 10.3999L5.89244 10.4C5.50769 10.7847 5.3153 10.9771 5.14985 11.1892C4.95468 11.4395 4.78734 11.7102 4.65081 11.9967C4.53507 12.2395 4.44904 12.4977 4.27696 13.0139L3.36955 15.7361C3.28487 15.9902 3.35099 16.2702 3.54034 16.4596C3.72969 16.6489 4.00977 16.7151 4.26381 16.6304L6.98604 15.723C7.50226 15.5509 7.76038 15.4649 8.00324 15.3491C8.28971 15.2126 8.56046 15.0453 8.8107 14.8501Z" fill="#405F2D"/>
<path d="M15.8987 7.80871C16.9225 6.78491 16.9225 5.125 15.8987 4.1012C14.8749 3.07739 13.215 3.07739 12.1912 4.1012L11.5999 4.69255C11.608 4.71701 11.6164 4.7418 11.6251 4.76691C11.8418 5.39167 12.2508 6.21068 13.0201 6.98002C13.7895 7.74937 14.6085 8.15833 15.2332 8.37509C15.2582 8.38376 15.2829 8.39212 15.3073 8.40019L15.8987 7.80871Z" fill="#405F2D"/>
</svg>
