<svg xmlns="http://www.w3.org/2000/svg" width="20" height="21" viewBox="0 0 20 21" fill="none">
  <path fill-rule="evenodd" clip-rule="evenodd" d="M9.99992 1.80957C6.31802 1.80957 3.33325 5.14506 3.33325 8.8929C3.33325 12.6114 5.46102 16.6532 8.78081 18.2049C9.5547 18.5667 10.4451 18.5667 11.219 18.2049C14.5388 16.6532 16.6666 12.6114 16.6666 8.8929C16.6666 5.14506 13.6818 1.80957 9.99992 1.80957ZM9.99992 10.1429C10.9204 10.1429 11.6666 9.39671 11.6666 8.47624C11.6666 7.55576 10.9204 6.80957 9.99992 6.80957C9.07944 6.80957 8.33325 7.55576 8.33325 8.47624C8.33325 9.39671 9.07944 10.1429 9.99992 10.1429Z" fill="#454545"/>
</svg>