<svg width="16" height="16" viewBox="0 0 16 16" fill="none" xmlns="http://www.w3.org/2000/svg">
<path d="M7.52007 12.929L7.52008 12.9289L13.4368 7.01225C12.6315 6.6771 11.6777 6.12656 10.7757 5.22455C9.87356 4.32238 9.323 3.36846 8.98786 2.56312L3.07106 8.47992L3.07101 8.47997C2.60932 8.94166 2.37846 9.17253 2.17992 9.42707C1.94571 9.72735 1.74491 10.0522 1.58107 10.396C1.44219 10.6874 1.33894 10.9972 1.13245 11.6167L0.0435587 14.8833C-0.0580577 15.1882 0.0212837 15.5243 0.248505 15.7515C0.475726 15.9787 0.811824 16.0581 1.11667 15.9564L4.38334 14.8676C5.00281 14.6611 5.31256 14.5578 5.60398 14.4189C5.94775 14.2551 6.27265 14.0543 6.57293 13.8201C6.82748 13.6215 7.05837 13.3907 7.52007 12.929Z" fill="#454545"/>
<path d="M15.0786 5.37044C16.3071 4.14188 16.3071 2.14999 15.0786 0.921423C13.85 -0.307141 11.8581 -0.307141 10.6296 0.921423L9.91992 1.63105C9.92964 1.6604 9.93972 1.69015 9.95018 1.72028C10.2103 2.47 10.701 3.45281 11.6243 4.37602C12.5475 5.29923 13.5303 5.78999 14.28 6.05009C14.31 6.0605 14.3396 6.07054 14.3688 6.08021L15.0786 5.37044Z" fill="#454545"/>
</svg>
