<svg width="24" height="24" viewBox="0 0 24 24" fill="none" xmlns="http://www.w3.org/2000/svg">
<g clip-path="url(#clip0_5053_2410)">
<path d="M7.92183 21.571C9.29214 21.571 10.403 18.716 10.403 15.1942C10.403 11.6724 9.29214 8.81738 7.92183 8.81738C6.55153 8.81738 5.44067 11.6724 5.44067 15.1942C5.44067 18.716 6.55153 21.571 7.92183 21.571Z" stroke="#405F2D" stroke-width="0.75" stroke-miterlimit="10"/>
<path d="M16.861 21.571C18.2313 21.571 19.3422 18.716 19.3422 15.1942C19.3422 11.6724 18.2313 8.81738 16.861 8.81738C15.4907 8.81738 14.3799 11.6724 14.3799 15.1942C14.3799 18.716 15.4907 21.571 16.861 21.571Z" stroke="#405F2D" stroke-width="0.75" stroke-miterlimit="10"/>
<path d="M7.92187 7.07826C9.20253 7.07826 10.2407 6.04008 10.2407 4.75942C10.2407 3.47876 9.20253 2.44058 7.92187 2.44058C6.64121 2.44058 5.60303 3.47876 5.60303 4.75942C5.60303 6.04008 6.64121 7.07826 7.92187 7.07826Z" stroke="#405F2D" stroke-width="0.75" stroke-miterlimit="10"/>
<path d="M16.8611 7.07826C18.1417 7.07826 19.1799 6.04008 19.1799 4.75942C19.1799 3.47876 18.1417 2.44058 16.8611 2.44058C15.5804 2.44058 14.5422 3.47876 14.5422 4.75942C14.5422 6.04008 15.5804 7.07826 16.8611 7.07826Z" stroke="#405F2D" stroke-width="0.75" stroke-miterlimit="10"/>
</g>
<defs>
<clipPath id="clip0_5053_2410">
<rect width="14.7826" height="20" fill="white" transform="translate(5 2)"/>
</clipPath>
</defs>
</svg>
