<svg width="25" height="24" viewBox="0 0 25 24" fill="none" xmlns="http://www.w3.org/2000/svg">
  <path
    d="M4.5 7.13225C4.5 6.78159 4.79041 6.49733 5.14865 6.49733H9.40478C9.41055 5.74957 9.49159 4.72445 10.2337 4.0148C10.8177 3.45632 11.6183 3.11108 12.5 3.11108C13.3817 3.11108 14.1823 3.45632 14.7663 4.0148C15.5084 4.72445 15.5894 5.74957 15.5952 6.49733H19.8514C20.2096 6.49733 20.5 6.78159 20.5 7.13225C20.5 7.48291 20.2096 7.76717 19.8514 7.76717H5.14865C4.79041 7.76717 4.5 7.48291 4.5 7.13225Z"
    fill="currentColor" />
  <path
    d="M12.1503 20.8889H12.8498C15.2564 20.8889 16.4598 20.8889 17.2421 20.1216C18.0245 19.3543 18.1046 18.0956 18.2647 15.5784L18.4953 11.9513C18.5822 10.5854 18.6256 9.90252 18.2331 9.46977C17.8406 9.03701 17.1778 9.03701 15.8522 9.03701H9.14786C7.82222 9.03701 7.1594 9.03701 6.7669 9.46977C6.3744 9.90252 6.41783 10.5854 6.5047 11.9513L6.73537 15.5784C6.89546 18.0956 6.9755 19.3543 7.75789 20.1216C8.54028 20.8889 9.74361 20.8889 12.1503 20.8889Z"
    fill="currentColor" />
</svg>
  