<svg xmlns="http://www.w3.org/2000/svg" width="24" height="24" viewBox="0 0 24 24" fill="none">
  <path d="M4 7.13249C4 6.78184 4.29041 6.49757 4.64865 6.49757H8.90478C8.91055 5.74982 8.99159 4.7247 9.73366 4.01504C10.3177 3.45656 11.1183 3.11133 12 3.11133C12.8817 3.11133 13.6823 3.45656 14.2663 4.01504C15.0084 4.7247 15.0894 5.74981 15.0952 6.49757H19.3514C19.7096 6.49757 20 6.78184 20 7.13249C20 7.48315 19.7096 7.76741 19.3514 7.76741H4.64865C4.29041 7.76741 4 7.48315 4 7.13249Z" fill="#454545"/>
  <path d="M11.6503 20.8891H12.3498C14.7564 20.8891 15.9598 20.8891 16.7421 20.1218C17.5245 19.3545 17.6046 18.0959 17.7647 15.5786L17.9953 11.9515C18.0822 10.5857 18.1256 9.90277 17.7331 9.47001C17.3406 9.03725 16.6778 9.03725 15.3522 9.03725H8.64786C7.32222 9.03725 6.6594 9.03725 6.2669 9.47001C5.8744 9.90277 5.91783 10.5857 6.0047 11.9515L6.23537 15.5786C6.39546 18.0959 6.4755 19.3545 7.25789 20.1218C8.04028 20.8891 9.24361 20.8891 11.6503 20.8891Z" fill="#454545"/>
</svg>