<svg width="24" height="24" viewBox="0 0 24 24" fill="none" xmlns="http://www.w3.org/2000/svg">
<path d="M4 7.13228C4 6.78162 4.29041 6.49735 4.64865 6.49735H8.90478C8.91055 5.7496 8.99159 4.72448 9.73366 4.01483C10.3177 3.45634 11.1183 3.11111 12 3.11111C12.8817 3.11111 13.6823 3.45634 14.2663 4.01483C15.0084 4.72448 15.0894 5.7496 15.0952 6.49735H19.3514C19.7096 6.49735 20 6.78162 20 7.13228C20 7.48293 19.7096 7.7672 19.3514 7.7672H4.64865C4.29041 7.7672 4 7.48293 4 7.13228Z" fill="#D9363E"/>
<path d="M11.6503 20.8889H12.3498C14.7564 20.8889 15.9598 20.8889 16.7421 20.1216C17.5245 19.3543 17.6046 18.0957 17.7647 15.5784L17.9953 11.9513C18.0822 10.5855 18.1256 9.90255 17.7331 9.46979C17.3406 9.03704 16.6778 9.03704 15.3522 9.03704H8.64786C7.32222 9.03704 6.6594 9.03704 6.2669 9.46979C5.8744 9.90255 5.91783 10.5855 6.0047 11.9513L6.23537 15.5784C6.39546 18.0957 6.4755 19.3543 7.25789 20.1216C8.04028 20.8889 9.24361 20.8889 11.6503 20.8889Z" fill="#D9363E"/>
</svg>
