<svg width="20" height="20" viewBox="0 0 20 20" fill="none" xmlns="http://www.w3.org/2000/svg">
<path d="M14.1324 8.12499C13.7872 8.12499 13.5074 7.84517 13.5074 7.49999L13.5074 1.66666C13.5074 1.32148 13.7872 1.04166 14.1324 1.04166C14.4776 1.04166 14.7574 1.32148 14.7574 1.66666L14.7574 7.49999C14.7574 7.84517 14.4776 8.12499 14.1324 8.12499Z" fill="#405F2D"/>
<path d="M5.83325 10.4167C4.45254 10.4167 3.33325 9.29737 3.33325 7.91666C3.33325 6.53594 4.45254 5.41666 5.83325 5.41666C7.21396 5.41666 8.33325 6.53594 8.33325 7.91666C8.33325 9.29737 7.21396 10.4167 5.83325 10.4167Z" fill="#405F2D"/>
<path d="M14.1666 9.58332C12.7859 9.58332 11.6666 10.7026 11.6666 12.0833C11.6666 13.464 12.7859 14.5833 14.1666 14.5833C15.5473 14.5833 16.6666 13.464 16.6666 12.0833C16.6666 10.7026 15.5473 9.58332 14.1666 9.58332Z" fill="#405F2D"/>
<path d="M5.17409 12.5C5.17409 12.1548 5.45391 11.875 5.79909 11.875C6.14427 11.875 6.42409 12.1548 6.42409 12.5V18.3333C6.42409 18.6785 6.14427 18.9583 5.79909 18.9583C5.45391 18.9583 5.17409 18.6785 5.17409 18.3333V12.5Z" fill="#405F2D"/>
<path d="M14.1324 18.9583C13.7872 18.9583 13.5074 18.6785 13.5074 18.3333V16.6667C13.5074 16.3215 13.7872 16.0417 14.1324 16.0417C14.4776 16.0417 14.7574 16.3215 14.7574 16.6667V18.3333C14.7574 18.6785 14.4776 18.9583 14.1324 18.9583Z" fill="#405F2D"/>
<path d="M5.17409 1.66666C5.17409 1.32148 5.45391 1.04166 5.79909 1.04166C6.14427 1.04166 6.42409 1.32148 6.42409 1.66666V3.33332C6.42409 3.6785 6.14427 3.95832 5.79909 3.95832C5.45391 3.95832 5.17409 3.6785 5.17409 3.33332V1.66666Z" fill="#405F2D"/>
<path d="M14.1324 8.12499C13.7872 8.12499 13.5074 7.84517 13.5074 7.49999L13.5074 1.66666C13.5074 1.32148 13.7872 1.04166 14.1324 1.04166C14.4776 1.04166 14.7574 1.32148 14.7574 1.66666L14.7574 7.49999C14.7574 7.84517 14.4776 8.12499 14.1324 8.12499Z" stroke="#405F2D"/>
<path d="M5.83325 10.4167C4.45254 10.4167 3.33325 9.29737 3.33325 7.91666C3.33325 6.53594 4.45254 5.41666 5.83325 5.41666C7.21396 5.41666 8.33325 6.53594 8.33325 7.91666C8.33325 9.29737 7.21396 10.4167 5.83325 10.4167Z" stroke="#405F2D"/>
<path d="M14.1666 9.58332C12.7859 9.58332 11.6666 10.7026 11.6666 12.0833C11.6666 13.464 12.7859 14.5833 14.1666 14.5833C15.5473 14.5833 16.6666 13.464 16.6666 12.0833C16.6666 10.7026 15.5473 9.58332 14.1666 9.58332Z" stroke="#405F2D"/>
<path d="M5.17409 12.5C5.17409 12.1548 5.45391 11.875 5.79909 11.875C6.14427 11.875 6.42409 12.1548 6.42409 12.5V18.3333C6.42409 18.6785 6.14427 18.9583 5.79909 18.9583C5.45391 18.9583 5.17409 18.6785 5.17409 18.3333V12.5Z" stroke="#405F2D"/>
<path d="M14.1324 18.9583C13.7872 18.9583 13.5074 18.6785 13.5074 18.3333V16.6667C13.5074 16.3215 13.7872 16.0417 14.1324 16.0417C14.4776 16.0417 14.7574 16.3215 14.7574 16.6667V18.3333C14.7574 18.6785 14.4776 18.9583 14.1324 18.9583Z" stroke="#405F2D"/>
<path d="M5.17409 1.66666C5.17409 1.32148 5.45391 1.04166 5.79909 1.04166C6.14427 1.04166 6.42409 1.32148 6.42409 1.66666V3.33332C6.42409 3.6785 6.14427 3.95832 5.79909 3.95832C5.45391 3.95832 5.17409 3.6785 5.17409 3.33332V1.66666Z" stroke="#405F2D"/>
</svg>
