<svg xmlns="http://www.w3.org/2000/svg" width="148" height="164" viewBox="0 0 148 164" fill="none">
  <path d="M22 150.25L137.25 150.25" stroke="#D1D1D1" stroke-width="2" stroke-linecap="round" stroke-linejoin="round" />
  <path d="M58.1484 70.428H99.5001V149.524H58.1484V70.428Z" fill="white" stroke="#D1D1D1" stroke-width="2"
    stroke-linejoin="round" />
  <path d="M67.7578 83.9612L99.8766 71.7532V150.524L67.7578 163.023V83.9612Z" fill="#BCBCBC" stroke="#BCBCBC"
    stroke-linejoin="round" />
  <path d="M95.226 70.2998L100.022 71.6078L68.1939 83.8159L64.5605 82.2172L95.226 70.2998Z" fill="#D1D1D1"
    stroke="#BCBCBC" stroke-linejoin="round" />
  <path d="M64.2698 160.189V82.3625L67.4671 83.6706V163.162L64.2698 160.189Z" fill="#D1D1D1" stroke="#BCBCBC"
    stroke-linejoin="round" />
  <path
    d="M57.9565 96.8319C56.7463 96.8319 55.5856 97.3126 54.7298 98.1684C53.874 99.0242 53.3933 100.185 53.3933 101.395C53.3933 102.605 53.874 103.766 54.7298 104.622C55.5856 105.478 56.7463 105.958 57.9565 105.958C59.1668 105.958 60.3275 105.478 61.1832 104.622C62.039 103.766 62.5198 102.605 62.5198 101.395C62.5198 100.185 62.039 99.0242 61.1832 98.1684C60.3275 97.3126 59.1668 96.8319 57.9565 96.8319ZM42.7457 87.7054C40.7286 87.7054 38.7941 88.5067 37.3679 89.933C35.9416 91.3592 35.1403 93.2937 35.1403 95.3108C35.1403 97.3279 35.9416 99.2623 37.3679 100.689C38.7941 102.115 40.7286 102.916 42.7457 102.916C44.7628 102.916 46.6972 102.115 48.1235 100.689C49.5498 99.2623 50.3511 97.3279 50.3511 95.3108C50.3511 93.2937 49.5498 91.3592 48.1235 89.933C46.6972 88.5067 44.7628 87.7054 42.7457 87.7054ZM24.4927 84.6632C28.1129 84.6632 31.3984 83.1421 33.6192 80.5563C35.84 83.1421 39.1255 84.6632 42.7457 84.6632C48.7083 84.6632 53.6671 80.3738 54.7014 74.7458C56.9989 73.8573 58.9745 72.2957 60.3695 70.2656C61.7645 68.2354 62.514 65.8313 62.5198 63.3681C62.5198 60.1407 61.2377 57.0456 58.9557 54.7635C56.6736 52.4814 53.5784 51.1994 50.3511 51.1994C49.5601 51.1994 48.83 51.2907 48.0086 51.4123C45.7879 49.4045 42.8978 48.1572 39.7035 48.1572C36.0834 48.1572 32.7978 49.6783 30.577 52.2642C28.3562 49.6783 25.0707 48.1572 21.4505 48.1572C15.4879 48.1572 10.5292 52.4467 9.49482 58.0747C7.19737 58.9632 5.22178 60.5247 3.82673 62.5549C2.43167 64.585 1.68221 66.9891 1.67645 69.4524C1.67645 72.6797 2.9585 75.7749 5.24057 78.0569C7.52264 80.339 10.6178 81.621 13.8451 81.621L16.1876 81.4081C18.4084 83.4159 21.2984 84.6632 24.4927 84.6632Z"
    fill="#E7E7E7" />
  <path
    d="M30.4146 76.0177C32.5736 76.0177 34.2364 75.1994 35.403 73.5627C36.5695 71.9086 37.1528 69.5581 37.1528 66.5111C37.1528 63.4292 36.5695 61.0874 35.403 59.4855C34.2364 57.8837 32.5736 57.0828 30.4146 57.0828C28.2382 57.0828 26.5754 57.8837 25.4262 59.4855C24.2597 61.0874 23.6764 63.4205 23.6764 66.4849C23.6764 69.5494 24.2597 71.9086 25.4262 73.5627C26.5754 75.1994 28.2382 76.0177 30.4146 76.0177ZM30.4146 73.2493C29.2306 73.2493 28.3513 72.7095 27.7768 71.63C27.2022 70.5331 26.9149 68.8181 26.9149 66.4849C26.9149 64.1518 27.2022 62.4629 27.7768 61.4182C28.3513 60.3561 29.2306 59.8251 30.4146 59.8251C31.5812 59.8251 32.4604 60.3561 33.0524 61.4182C33.627 62.4629 33.9143 64.1518 33.9143 66.4849C33.9143 68.8181 33.627 70.5331 33.0524 71.63C32.4604 72.7095 31.5812 73.2493 30.4146 73.2493Z"
    fill="#888888" />
  <circle cx="71.375" cy="123.334" r="2" fill="#888888" />
</svg>